<svg width="243" height="243" viewBox="0 0 243 243" fill="none" xmlns="http://www.w3.org/2000/svg">
<path d="M121.083 0C54.1469 0 0 54.1469 0 121.083C0 187.853 54.1469 242.166 121.083 242.166C187.853 242.166 242.166 188.019 242.166 121.083C242 54.1469 187.853 0 121.083 0ZM121.083 234.36C58.4653 234.36 7.80645 183.701 7.80645 121.083C7.80645 58.4653 58.4653 7.80645 121.083 7.80645C183.701 7.80645 234.36 58.4653 234.36 121.083C234.36 183.535 183.535 234.36 121.083 234.36Z" fill="#FFCF2D"/>
<path d="M120.84 24C68.5202 24 26 66.5202 26 118.84C26 171.16 68.5202 213.68 120.84 213.68C173.16 213.68 215.68 171.326 215.68 119.006C215.68 66.5202 173.16 24 120.84 24ZM120.84 199.23C76.4928 199.23 40.4502 163.187 40.4502 118.84C40.4502 74.4928 76.4928 38.4502 120.84 38.4502C165.187 38.4502 201.23 74.4928 201.23 118.84C201.23 163.187 165.187 199.23 120.84 199.23Z" fill="#FFCF2D"/>
</svg>
